<svg width="239" height="188" viewBox="0 0 239 188" fill="none" xmlns="http://www.w3.org/2000/svg">
<path d="M89.9244 23.3154L88.9264 23.2517L89.9244 23.3154ZM108.311 11.4722L108.157 12.4603L108.311 11.4722ZM217.562 96.5893L216.649 96.9964L216.649 96.9964L217.562 96.5893ZM230.293 187.707C230.683 188.098 231.317 188.098 231.707 187.707L238.071 181.343C238.462 180.953 238.462 180.319 238.071 179.929C237.681 179.538 237.047 179.538 236.657 179.929L231 185.586L225.343 179.929C224.953 179.538 224.319 179.538 223.929 179.929C223.538 180.319 223.538 180.953 223.929 181.343L230.293 187.707ZM1.11572 3.21406C16.9114 1.37379 39.377 1.46709 57.6996 4.59508C66.8699 6.16061 74.919 8.47293 80.5663 11.6293C86.2291 14.7944 89.2206 18.6446 88.9264 23.2517L90.9224 23.3791C91.2898 17.6245 87.4663 13.1946 81.5421 9.8835C75.6024 6.56371 67.2925 4.20383 58.0361 2.6236C39.5055 -0.539906 16.8473 -0.632274 0.884278 1.2275L1.11572 3.21406ZM88.9264 23.2517C88.7131 26.5933 87.6671 28.5904 86.3889 29.6853C85.116 30.7755 83.4611 31.1017 81.7429 30.7958C78.2043 30.1659 74.8841 26.9755 74.8841 23.315H72.8841C72.8841 28.166 77.1352 32.007 81.3923 32.7649C83.572 33.1529 85.871 32.7622 87.6899 31.2042C89.5034 29.6509 90.6868 27.0686 90.9224 23.3791L88.9264 23.2517ZM74.8841 23.315C74.8841 20.5964 75.3174 18.3729 76.3007 16.6068C77.2712 14.8636 78.8253 13.4796 81.2395 12.5116C86.1596 10.5387 94.5212 10.3414 108.157 12.4603L108.465 10.484C94.8201 8.36382 85.9683 8.46058 80.4951 10.6552C77.7126 11.771 75.7752 13.439 74.5532 15.6339C73.3441 17.8058 72.8841 20.4062 72.8841 23.315H74.8841ZM108.157 12.4603C127.077 15.4001 186.831 30.1009 216.649 96.9964L218.476 96.1822C188.25 28.3711 127.656 13.4662 108.465 10.484L108.157 12.4603ZM216.649 96.9964C230.079 127.128 230 161.061 230 187H232C232 161.129 232.107 126.764 218.476 96.1822L216.649 96.9964Z" fill="#01082D"/>
</svg>
