<?xml version="1.0" encoding="utf-8"?>
<svg viewBox="245.774 168.562 30.409 29.85" xmlns="http://www.w3.org/2000/svg">
  <rect width="30.074" height="29.552" rx="2.025" fill="#5C62F9" x="245.921" y="168.705" transform="matrix(1, 0, 0, 1, -2.842170943040401e-14, 0)"/>
  <path fill-rule="evenodd" clip-rule="evenodd" d="M 263.163 174.022 L 261.613 175.386 C 261.319 175.344 261.014 175.329 260.714 175.329 C 260.054 175.329 259.355 175.4 258.731 175.643 L 257.022 174.326 L 257.146 177.082 C 257.075 177.228 257.012 177.385 256.959 177.556 C 256.64 178.569 256.589 179.106 256.589 179.909 C 256.589 180.02 256.641 180.721 256.509 181.221 C 256.22 182.319 255.417 184.124 255.159 185.364 C 255.096 185.667 254.629 188.497 254.959 190.453 C 255.341 192.726 257.756 192.969 259.987 192.995 L 260.134 192.996 C 260.305 192.997 260.475 192.998 260.642 192.998 L 260.828 192.998 C 262.73 192.997 266.414 192.949 266.864 190.742 C 266.866 190.736 266.867 190.73 266.869 190.724 C 267.011 190.087 267.23 189.335 267.457 187.481 C 267.573 186.536 267.573 186.485 267.523 185.378 C 267.473 184.272 266.643 181.656 268.059 181.191 C 269.052 180.865 269.629 181.81 269.741 182.565 C 269.773 182.787 269.764 183.028 269.751 183.265 L 269.746 183.349 C 269.745 183.363 269.744 183.377 269.744 183.39 L 269.739 183.473 C 269.713 183.964 269.718 184.4 270.117 184.539 C 270.517 184.679 270.885 184.468 271.029 183.853 C 271.154 183.323 271.044 182.181 270.981 181.906 C 270.845 181.31 270.418 179.906 268.812 179.546 C 267.575 179.268 266.832 180.445 266.491 181.109 L 266.464 181.164 C 266.459 181.173 266.455 181.182 266.45 181.191 C 265.874 182.351 266.108 184.398 266.298 184.989 C 266.493 185.597 266.486 186.147 266.395 186.6 L 266.395 186.6 L 266.379 186.526 C 266.24 185.891 266.096 185.342 265.977 185.019 L 265.964 184.982 C 265.232 183.07 264.484 181.48 264.076 179.504 C 264.012 179.193 263.956 178.865 263.901 178.539 L 263.873 178.376 C 263.739 177.59 263.6 176.835 263.34 176.387 C 263.326 176.364 263.313 176.342 263.299 176.32 L 263.163 174.022 Z" fill="white" transform="matrix(1, 0, 0, 1, -2.842170943040401e-14, 0)"/>
</svg>