<svg width="91" height="62" viewBox="0 0 91 62" fill="none" xmlns="http://www.w3.org/2000/svg">
    <path d="M6.08437 50.9688C7.23021 50.9688 7.80312 51.2604 7.80312 51.8438C7.80312 52.2812 7.48542 52.7917 6.85 53.375C5.90208 54.2396 4.62604 54.9323 3.02187 55.4531C2.94896 55.4531 2.86562 55.3802 2.77187 55.2344C2.68854 55.0885 2.62083 54.9792 2.56875 54.9062C2.52708 54.8229 2.49583 54.7708 2.475 54.75C3.67292 54.3542 4.65729 53.875 5.42812 53.3125C5.94896 52.9375 6.20937 52.6302 6.20937 52.3906C6.20937 52.151 5.90208 52.0312 5.2875 52.0312C4.67292 52.0312 3.77187 52.1771 2.58437 52.4688C2.04271 52.4479 1.57396 52.2552 1.17812 51.8906C0.834373 51.5677 0.662498 51.2448 0.662498 50.9219C0.662498 50.5885 0.756248 50.2865 0.943748 50.0156C1.13125 49.7344 1.38125 49.474 1.69375 49.2344C2.00625 48.9948 2.37083 48.776 2.7875 48.5781C3.80833 48.0885 4.86562 47.8438 5.95937 47.8438C6.28229 47.8438 6.59479 47.875 6.89687 47.9375C7.14687 47.9375 7.29271 48.0469 7.33437 48.2656C7.37604 48.4844 7.39687 48.8438 7.39687 49.3438C6.78229 49.0625 6.08958 48.9219 5.31875 48.9219C4.36042 48.9219 3.56875 49.1146 2.94375 49.5C2.29792 49.875 1.96458 50.3646 1.94375 50.9688C1.94375 51.2604 2.15729 51.4062 2.58437 51.4062L3.725 51.2812C4.70417 51.0729 5.49062 50.9688 6.08437 50.9688ZM15.5644 53.3594C15.9915 53.1823 16.4081 53.0208 16.8144 52.875C17.2206 52.7292 17.606 52.6562 17.9706 52.6562C18.3456 52.6562 18.5331 52.7708 18.5331 53C18.5331 53.0521 18.5175 53.1354 18.4862 53.25C18.4654 53.3542 18.3248 53.4844 18.0644 53.6406C17.8144 53.7865 17.5019 53.9271 17.1269 54.0625C16.7623 54.1979 16.3612 54.3229 15.9237 54.4375C15.4862 54.5521 15.0592 54.651 14.6425 54.7344C13.7779 54.9115 13.1633 55 12.7987 55C12.4342 55 12.0383 54.9583 11.6112 54.875C11.1946 54.7917 10.804 54.6562 10.4394 54.4688C9.59562 54.0312 9.17375 53.3854 9.17375 52.5312C9.17375 52.4688 9.17375 52.3438 9.17375 52.1562C9.17375 51.9688 9.25187 51.7031 9.40812 51.3594C9.56437 51.0052 9.79875 50.6562 10.1112 50.3125C10.4237 49.9583 10.7883 49.6354 11.205 49.3438C12.08 48.7188 12.9967 48.3125 13.955 48.125C14.2883 48.0521 14.5644 48.0156 14.7831 48.0156C15.0123 48.0156 15.1998 48.0208 15.3456 48.0312C15.4915 48.0312 15.6425 48.0417 15.7987 48.0625C15.955 48.0729 16.0904 48.1094 16.205 48.1719C16.4758 48.3073 16.6112 48.5729 16.6112 48.9688C16.6112 49.2188 16.4342 49.4635 16.08 49.7031C15.9862 49.7656 15.9029 49.8229 15.83 49.875C15.7779 49.6354 15.7102 49.4323 15.6269 49.2656C15.5435 49.099 15.3612 49.0156 15.08 49.0156C13.8508 49.276 12.7935 49.6667 11.9081 50.1875C10.9081 50.7812 10.4081 51.4062 10.4081 52.0625C10.4081 52.1354 10.4133 52.2135 10.4237 52.2969C10.4237 52.9635 10.679 53.4375 11.1894 53.7188C11.5748 53.9271 12.0696 54.0312 12.6737 54.0312C13.2883 54.0312 13.8196 53.9635 14.2675 53.8281C14.7154 53.6823 15.1477 53.526 15.5644 53.3594ZM27.5287 49.2969C27.0912 48.9844 26.5287 48.8281 25.8412 48.8281C25.1954 48.8281 24.5965 48.9479 24.0444 49.1875C23.0027 49.625 22.2892 50.1875 21.9037 50.875C21.7371 51.1875 21.6537 51.5208 21.6537 51.875C21.6537 51.9375 21.6537 52.1146 21.6537 52.4062C21.6537 52.6875 21.7058 53.0729 21.81 53.5625C21.9142 54.0417 21.9662 54.5312 21.9662 55.0312C21.7475 55.0417 21.5704 55.0677 21.435 55.1094C21.2996 55.151 21.185 55.1719 21.0912 55.1719C20.9975 55.1719 20.9142 55.1302 20.8412 55.0469C20.7787 54.9635 20.7058 54.8021 20.6225 54.5625C20.6121 54.5 20.5912 54.3229 20.56 54.0312C20.5287 53.7396 20.4871 53.3854 20.435 52.9688C20.3933 52.5521 20.3412 52.099 20.2787 51.6094C20.2267 51.1094 20.1746 50.6198 20.1225 50.1406C20.0079 49.099 19.9194 48.3333 19.8569 47.8438C19.8569 47.5938 20.0392 47.4688 20.4037 47.4688C20.6225 47.4688 20.7944 47.5625 20.9194 47.75C21.0444 47.9271 21.1433 48.1354 21.2162 48.375C21.2892 48.6042 21.336 48.8333 21.3569 49.0625C21.3881 49.2917 21.4142 49.4531 21.435 49.5469C22.81 48.3177 24.5183 47.7031 26.56 47.7031C26.7892 47.7031 27.0287 47.7083 27.2787 47.7188C27.3412 47.7083 27.4194 47.7031 27.5131 47.7031C27.6069 47.7031 27.7006 47.7656 27.7944 47.8906C27.909 48.0365 27.9662 48.2135 27.9662 48.4219C27.9662 48.9427 27.8204 49.2344 27.5287 49.2969ZM29.5556 52.0312C29.5556 50.8021 30.0869 49.8125 31.1494 49.0625C31.9931 48.4688 33.0087 48.1094 34.1962 47.9844C34.2587 47.9844 34.4046 47.9844 34.6337 47.9844C34.8629 47.9844 35.1702 48.0521 35.5556 48.1875C36.4098 48.4792 36.9931 48.9948 37.3056 49.7344C37.4306 50.026 37.4931 50.276 37.4931 50.4844C37.4931 50.6823 37.4879 50.8229 37.4775 50.9062C37.4775 52.2083 36.9827 53.2344 35.9931 53.9844C35.0765 54.6719 33.9306 55.0156 32.5556 55.0156C31.566 55.0156 30.816 54.7865 30.3056 54.3281C29.8056 53.8698 29.5556 53.1042 29.5556 52.0312ZM30.6337 52.4062C30.6337 53.0521 30.8056 53.4896 31.1494 53.7188C31.4098 53.8854 31.8473 53.9688 32.4619 53.9688C33.0765 53.9688 33.6181 53.9219 34.0869 53.8281C34.5556 53.7344 34.9723 53.5729 35.3369 53.3438C36.1181 52.8438 36.5087 52.0677 36.5087 51.0156C36.5087 50.3906 36.3421 49.8802 36.0087 49.4844C35.6442 49.0573 35.165 48.8438 34.5712 48.8438C34.165 48.9167 33.7535 48.9948 33.3369 49.0781C32.9306 49.1615 32.5452 49.3229 32.1806 49.5625C31.389 50.0729 30.8733 51.0208 30.6337 52.4062ZM38.9262 48.9375C38.9054 48.375 38.8846 47.875 38.8637 47.4375C38.8429 46.9896 38.8273 46.6615 38.8169 46.4531C38.8169 46.2344 38.7335 45.7083 38.5669 44.875C38.6606 44.75 38.7492 44.6302 38.8325 44.5156C38.9262 44.401 39.0565 44.3438 39.2231 44.3438C39.5877 44.3438 39.869 45.8802 40.0669 48.9531C40.171 50.7344 40.2231 52.5156 40.2231 54.2969C40.2231 54.776 39.8898 55.0156 39.2231 55.0156L39.0981 55C39.0981 54.4583 39.0825 53.7656 39.0512 52.9219C39.02 52.0781 38.994 51.3438 38.9731 50.7188C38.9627 50.0938 38.9471 49.5 38.9262 48.9375ZM41.9219 48.9375C41.901 48.375 41.8802 47.875 41.8594 47.4375C41.8385 46.9896 41.8229 46.6615 41.8125 46.4531C41.8125 46.2344 41.7292 45.7083 41.5625 44.875C41.6562 44.75 41.7448 44.6302 41.8281 44.5156C41.9219 44.401 42.0521 44.3438 42.2188 44.3438C42.5833 44.3438 42.8646 45.8802 43.0625 48.9531C43.1667 50.7344 43.2188 52.5156 43.2188 54.2969C43.2188 54.776 42.8854 55.0156 42.2188 55.0156L42.0938 55C42.0938 54.4583 42.0781 53.7656 42.0469 52.9219C42.0156 52.0781 41.9896 51.3438 41.9688 50.7188C41.9583 50.0938 41.9427 49.5 41.9219 48.9375ZM58.9131 42.4531C58.9131 43.4531 58.8819 44.4323 58.8194 45.3906C58.7673 46.3385 58.7152 47.2708 58.6631 48.1875C58.6215 49.0938 58.6006 50.0625 58.6006 51.0938C58.6006 52.1146 58.6735 53.1979 58.8194 54.3438C58.8194 54.5833 58.7725 54.7552 58.6787 54.8594C58.5954 54.9635 58.4496 55.0156 58.2412 55.0156C57.7517 55.0156 57.5069 54.6094 57.5069 53.7969V53.2812C56.0277 54.3854 54.7777 54.9375 53.7569 54.9375C53.3506 54.9375 52.934 54.8385 52.5069 54.6406C52.0902 54.4427 51.6944 54.0417 51.3194 53.4375C51.2673 53.1875 51.2412 52.9323 51.2412 52.6719C51.2412 52.4115 51.2881 52.099 51.3819 51.7344C51.486 51.3594 51.6892 50.974 51.9912 50.5781C52.3037 50.1823 52.6787 49.8333 53.1162 49.5312C54.0746 48.8854 55.111 48.5625 56.2256 48.5625C56.7048 48.5625 57.1631 48.6354 57.6006 48.7812C57.6006 48.5938 57.611 48.2656 57.6319 47.7969C57.6631 47.3281 57.6944 46.8333 57.7256 46.3125C57.7881 44.9583 57.8298 44.1615 57.8506 43.9219C57.8715 43.6719 57.8975 43.4635 57.9287 43.2969C57.9704 43.1198 58.0277 42.9688 58.1006 42.8438C58.2569 42.5833 58.5277 42.4531 58.9131 42.4531ZM52.3819 52.5469C52.3819 53.3698 52.6787 53.7812 53.2725 53.7812C53.3662 53.7812 53.4704 53.7708 53.585 53.75C54.0121 53.75 54.5381 53.625 55.1631 53.375C56.3506 52.9062 57.0746 52.5 57.335 52.1562V50.0781C57.335 49.7135 57.0381 49.5312 56.4444 49.5312C56.3715 49.5208 56.2725 49.5156 56.1475 49.5156C56.0329 49.5156 55.8506 49.5417 55.6006 49.5938C55.3506 49.6458 55.0694 49.7396 54.7569 49.875C54.4444 50.0104 54.1371 50.1771 53.835 50.375C53.1996 50.8021 52.7621 51.3021 52.5225 51.875C52.4287 52.0938 52.3819 52.3177 52.3819 52.5469ZM60.5962 52.0312C60.5962 50.8021 61.1275 49.8125 62.19 49.0625C63.0337 48.4688 64.0494 48.1094 65.2369 47.9844C65.2994 47.9844 65.4452 47.9844 65.6744 47.9844C65.9035 47.9844 66.2108 48.0521 66.5962 48.1875C67.4504 48.4792 68.0337 48.9948 68.3462 49.7344C68.4712 50.026 68.5337 50.276 68.5337 50.4844C68.5337 50.6823 68.5285 50.8229 68.5181 50.9062C68.5181 52.2083 68.0233 53.2344 67.0337 53.9844C66.1171 54.6719 64.9712 55.0156 63.5962 55.0156C62.6067 55.0156 61.8567 54.7865 61.3462 54.3281C60.8462 53.8698 60.5962 53.1042 60.5962 52.0312ZM61.6744 52.4062C61.6744 53.0521 61.8462 53.4896 62.19 53.7188C62.4504 53.8854 62.8879 53.9688 63.5025 53.9688C64.1171 53.9688 64.6587 53.9219 65.1275 53.8281C65.5962 53.7344 66.0129 53.5729 66.3775 53.3438C67.1587 52.8438 67.5494 52.0677 67.5494 51.0156C67.5494 50.3906 67.3827 49.8802 67.0494 49.4844C66.6848 49.0573 66.2056 48.8438 65.6119 48.8438C65.2056 48.9167 64.7942 48.9948 64.3775 49.0781C63.9712 49.1615 63.5858 49.3229 63.2212 49.5625C62.4296 50.0729 61.914 51.0208 61.6744 52.4062ZM75.6231 50.6875C75.394 51.4479 75.2012 52.151 75.045 52.7969C74.8992 53.4427 74.7533 53.9792 74.6075 54.4062C74.3783 55.0208 74.1179 55.3281 73.8262 55.3281C73.67 55.3281 73.4929 55.2552 73.295 55.1094C72.8158 54.599 72.1387 53.4688 71.2637 51.7188C70.4096 50.0104 69.9825 48.9427 69.9825 48.5156C69.9825 48.3281 70.0398 48.2135 70.1544 48.1719C70.269 48.1198 70.3992 48.1146 70.545 48.1562C70.8992 48.2604 71.1492 48.4219 71.295 48.6406C71.3679 48.7448 71.4565 48.9271 71.5606 49.1875L71.9512 50.1562C72.3887 51.25 72.821 52.25 73.2481 53.1562C73.4773 52.8021 73.696 52.3438 73.9044 51.7812L74.3887 50.4375C74.8054 49.2604 75.1804 48.6615 75.5137 48.6406C75.7742 48.474 76.5554 49.3958 77.8575 51.4062C78.4096 52.2604 78.7533 52.7708 78.8887 52.9375C78.9825 52.9375 79.0919 52.625 79.2169 52C79.3523 51.375 79.4669 50.849 79.5606 50.4219C79.6648 49.9844 79.7898 49.5781 79.9356 49.2031C80.2794 48.3281 80.6752 47.8906 81.1231 47.8906C81.269 47.8906 81.3679 47.9427 81.42 48.0469C81.4825 48.1406 81.5137 48.2188 81.5137 48.2812C81.5137 48.3438 81.5137 48.3906 81.5137 48.4219C81.3887 48.776 81.2585 49.1823 81.1231 49.6406C80.9877 50.0885 80.8419 50.5521 80.6856 51.0312C80.5398 51.5 80.3887 51.9688 80.2325 52.4375C80.0867 52.8958 79.9408 53.3125 79.795 53.6875C79.4512 54.5 79.1648 54.9375 78.9356 55C78.7585 55.0833 78.4721 54.8802 78.0762 54.3906C77.8992 54.1615 77.7117 53.8906 77.5137 53.5781C77.3158 53.2656 77.1075 52.9427 76.8887 52.6094C76.3575 51.776 75.9356 51.1354 75.6231 50.6875ZM89.1969 51.5781C89.1969 50.3385 89.1292 49.4271 88.9938 48.8438C89.0771 48.6875 88.9521 48.6094 88.6188 48.6094C88.2646 48.6094 87.8063 48.6979 87.2438 48.875C86.6813 49.0521 86.2229 49.2292 85.8688 49.4062C85.025 49.8125 84.5563 50.2083 84.4625 50.5938V54.8438H83.4156C83.2802 54.4896 83.2125 53.4948 83.2125 51.8594C83.2125 50.401 83.2385 49.3281 83.2906 48.6406C83.3531 47.9531 83.4 47.5625 83.4313 47.4688C83.7021 47.2917 83.9208 47.2031 84.0875 47.2031C84.3479 47.2031 84.4781 47.5104 84.4781 48.125C84.4781 48.3646 84.4625 48.599 84.4313 48.8281C84.4104 49.0469 84.4 49.1979 84.4 49.2812C86.0875 48.0417 87.3948 47.4219 88.3219 47.4219C89.374 47.4219 89.9729 48.2708 90.1188 49.9688C90.1813 50.5625 90.2125 51.3854 90.2125 52.4375L90.1969 53.6719C90.1969 54.1302 90.2073 54.5729 90.2281 55C90.124 55.0625 90.0406 55.0938 89.9781 55.0938C89.9469 55.0833 89.8792 55.0677 89.775 55.0469C89.6708 55.026 89.5354 55.0104 89.3688 55C89.2646 54.5833 89.2073 54.1615 89.1969 53.7344C89.1865 53.2969 89.1813 52.8958 89.1813 52.5312L89.1969 51.5781Z"
          fill="#01082D"/>
    <rect x="36.5" y="0.5" width="17" height="31" rx="8.5" stroke="#01082D"/>
    <circle cx="45" cy="7" r="2" fill="#5C62F9">
        <animate attributeName="cy" values="7; 7; 25; 25; 7" dur="2s" repeatCount="indefinite" />
  </circle>
</svg>
