<svg xmlns="http://www.w3.org/2000/svg" width="37" height="37" fill="none" viewBox="0 0 37 37"><path stroke="currentColor" stroke-width="1.5" d="M18.5 36C28.165 36 36 28.165 36 18.5S28.165 1 18.5 1 1 8.835 1 18.5 8.835 36 18.5 36Z" clip-rule="evenodd" opacity="0.1"></path><path fill="currentColor" d="M20.093 14.02h1.609c.147 0 .268-.113.268-.252v-1.516c0-.14-.12-.252-.268-.252h-1.609c-1.625 0-2.948 1.246-2.948 2.778v1.769h-1.877c-.148 0-.268.113-.268.252v1.516c0 .14.12.252.268.252h1.877v5.305c0 .14.12.253.268.253h1.608c.148 0 .268-.114.268-.253v-5.305h1.877c.115 0 .217-.07.254-.172l.536-1.516a.24.24 0 0 0-.037-.228.275.275 0 0 0-.217-.104h-2.413v-1.769c0-.418.36-.758.804-.758Z"></path></svg>