<svg xmlns="http://www.w3.org/2000/svg" width="37" height="37" fill="none" viewBox="0 0 37 37"><path stroke="currentColor" stroke-width="1.5" d="M18.5 36C28.165 36 36 28.165 36 18.5S28.165 1 18.5 1 1 8.835 1 18.5 8.835 36 18.5 36Z" clip-rule="evenodd" opacity="0.1"></path><path fill="currentColor" d="M18.539 15.16a3.369 3.369 0 0 1 3.35 3.35 3.35 3.35 0 0 1-3.35 3.35 3.332 3.332 0 0 1-3.35-3.35 3.35 3.35 0 0 1 3.35-3.35Zm0 5.534c1.194 0 2.155-.96 2.155-2.184a2.15 2.15 0 0 0-2.155-2.155c-1.223 0-2.184.96-2.184 2.155 0 1.223.99 2.184 2.184 2.184Zm4.252-5.65c0 .437-.349.786-.786.786a.783.783 0 0 1-.786-.786c0-.437.35-.787.786-.787.437 0 .787.35.787.787Zm2.214.786c.058 1.078.058 4.311 0 5.389-.058 1.048-.291 1.951-1.048 2.738-.758.757-1.69.99-2.738 1.048-1.078.058-4.311.058-5.389 0-1.048-.058-1.951-.291-2.738-1.048-.757-.787-.99-1.69-1.048-2.738-.059-1.078-.059-4.311 0-5.389.058-1.048.291-1.98 1.048-2.738.787-.757 1.69-.99 2.738-1.048 1.078-.059 4.311-.059 5.389 0 1.048.058 1.98.291 2.738 1.048.757.758.99 1.69 1.048 2.738Zm-1.398 6.525c.35-.845.262-2.884.262-3.845 0-.932.088-2.971-.262-3.845-.233-.553-.67-1.02-1.223-1.223-.874-.35-2.913-.262-3.845-.262-.961 0-3-.088-3.845.262-.582.233-1.02.67-1.252 1.223-.35.874-.262 2.913-.262 3.845 0 .961-.088 3 .262 3.845.233.582.67 1.019 1.252 1.252.845.35 2.884.262 3.845.262.932 0 2.97.088 3.845-.262.553-.233 1.02-.67 1.223-1.252Z"></path></svg>