<svg xmlns="http://www.w3.org/2000/svg" width="37" height="37" fill="none" viewBox="0 0 37 37"><path stroke="currentColor" stroke-width="1.5" d="M18.5 36C28.165 36 36 28.165 36 18.5S28.165 1 18.5 1 1 8.835 1 18.5 8.835 36 18.5 36Z" clip-rule="evenodd" opacity="0.1"></path><path fill="currentColor" d="M14.483 14.967a1.484 1.484 0 1 0 0-2.967 1.484 1.484 0 0 0 0 2.967ZM15.72 15.958h-2.473a.247.247 0 0 0-.247.247v7.418c0 .137.11.247.247.247h2.473c.136 0 .247-.11.247-.247v-7.418a.247.247 0 0 0-.247-.247ZM23.088 15.547c-1.057-.362-2.38-.044-3.172.526a.247.247 0 0 0-.24-.186h-2.472a.247.247 0 0 0-.247.248v7.417c0 .137.11.248.247.248h2.473c.136 0 .247-.111.247-.248v-5.33c.4-.345.915-.454 1.336-.275.408.172.642.594.642 1.155v4.45c0 .137.111.248.247.248h2.473c.137 0 .247-.111.247-.248v-4.948c-.028-2.032-.984-2.784-1.781-3.057Z"></path></svg>