<svg width="180" height="30" viewBox="0 0 180 30" fill="none" xmlns="http://www.w3.org/2000/svg">
    <rect width="30.0743" height="29.5521" rx="2.02508" fill="#5C62F9"/>
    <path fill-rule="evenodd" clip-rule="evenodd" d="M17.2417 5.31641L15.6923 6.68094C15.3983 6.63849 15.0933 6.62422 14.7929 6.62422C14.133 6.62422 13.434 6.69526 12.8095 6.93804L11.1007 5.62063L11.2248 8.37648C11.154 8.52258 11.0912 8.68035 11.0376 8.85066C10.7184 9.86416 10.6681 10.4012 10.6681 11.2043C10.6681 11.3153 10.7197 12.0158 10.5877 12.5163C10.2986 13.6137 9.49613 15.419 9.23821 16.6591C9.17513 16.9624 8.70804 19.792 9.03739 21.7481C9.42007 24.021 11.8348 24.2638 14.0662 24.2896L14.213 24.291C14.384 24.2923 14.5535 24.2926 14.7207 24.2926L14.9071 24.2926C16.8089 24.2916 20.493 24.2441 20.9431 22.037C20.9447 22.0312 20.9461 22.0252 20.9475 22.0189C21.0894 21.3816 21.3085 20.6298 21.5362 18.7757C21.6523 17.8309 21.6523 17.7797 21.602 16.6733C21.5516 15.5668 20.7217 12.9505 22.1383 12.4856C23.131 12.1598 23.7074 13.1054 23.8195 13.8603C23.8523 14.0816 23.843 14.3234 23.8297 14.5604L23.8249 14.6438C23.8241 14.6576 23.8233 14.6715 23.8225 14.6853L23.8178 14.7676C23.7915 15.2588 23.7971 15.6947 24.1957 15.8341C24.596 15.974 24.9634 15.7627 25.1083 15.1476C25.2331 14.6183 25.1232 13.4764 25.0603 13.2008C24.9242 12.6048 24.4967 11.2013 22.8908 10.8407C21.6542 10.563 20.9111 11.7396 20.5703 12.4042L20.5424 12.4591C20.538 12.4681 20.5336 12.4769 20.5292 12.4856C19.9529 13.6457 20.1873 15.6929 20.3771 16.2839C20.5723 16.8915 20.5648 17.4424 20.4738 17.8949L20.4737 17.8947L20.4578 17.8213C20.319 17.1864 20.1751 16.6374 20.056 16.3138L20.0424 16.2774C19.3108 14.3653 18.563 12.7753 18.1547 10.7988C18.0905 10.4881 18.0348 10.1598 17.9796 9.83349L17.9519 9.67057C17.8181 8.88482 17.6786 8.12965 17.4185 7.68178C17.4053 7.65906 17.3918 7.63682 17.3778 7.61503L17.2417 5.31641Z" fill="white"/>
    <path d="M113.169 10.7206C114.001 10.7206 114.74 10.8114 115.386 10.993C116.033 11.1594 116.533 11.4014 116.887 11.7191C117.257 12.0217 117.442 12.3772 117.442 12.7857C117.442 13.0429 117.365 13.2849 117.211 13.5118C117.057 13.7236 116.826 13.8295 116.518 13.8295C116.302 13.8295 116.118 13.7917 115.964 13.7161C115.825 13.6404 115.694 13.5497 115.571 13.4438C115.448 13.3379 115.294 13.232 115.109 13.1261C114.94 13.0353 114.686 12.9596 114.347 12.8991C114.024 12.8386 113.731 12.8084 113.47 12.8084C112.654 12.8084 111.945 12.9899 111.345 13.353C110.76 13.7161 110.298 14.2077 109.959 14.828C109.636 15.4483 109.474 16.1518 109.474 16.9384C109.474 17.7251 109.636 18.4286 109.959 19.0488C110.298 19.6691 110.752 20.1608 111.322 20.5239C111.907 20.887 112.584 21.0685 113.354 21.0685C113.816 21.0685 114.193 21.0382 114.486 20.9777C114.778 20.9021 115.032 20.8113 115.248 20.7054C115.479 20.5693 115.671 20.4331 115.825 20.2969C115.994 20.1457 116.225 20.07 116.518 20.07C116.857 20.07 117.111 20.1759 117.28 20.3877C117.465 20.5844 117.557 20.834 117.557 21.1366C117.557 21.4694 117.349 21.7947 116.934 22.1124C116.533 22.4149 115.994 22.6645 115.317 22.8612C114.64 23.0579 113.893 23.1562 113.077 23.1562C111.876 23.1562 110.829 22.8839 109.936 22.3393C109.059 21.7947 108.374 21.0534 107.881 20.1154C107.404 19.1774 107.165 18.1184 107.165 16.9384C107.165 15.7433 107.419 14.6843 107.927 13.7615C108.435 12.8235 109.143 12.0822 110.052 11.5376C110.96 10.9929 111.999 10.7206 113.169 10.7206Z" fill="#5C62F9"/>
    <path d="M131.403 16.9611C131.403 18.1714 131.134 19.2455 130.595 20.1835C130.056 21.1063 129.325 21.8325 128.401 22.362C127.477 22.8915 126.438 23.1562 125.283 23.1562C124.129 23.1562 123.089 22.8915 122.166 22.362C121.242 21.8325 120.503 21.1063 119.949 20.1835C119.41 19.2455 119.14 18.1714 119.14 16.9611C119.14 15.7357 119.41 14.6616 119.949 13.7388C120.503 12.8008 121.242 12.0671 122.166 11.5376C123.089 10.9929 124.129 10.7206 125.283 10.7206C126.438 10.7206 127.477 10.9929 128.401 11.5376C129.325 12.0671 130.056 12.8008 130.595 13.7388C131.134 14.6616 131.403 15.7357 131.403 16.9611ZM129.094 16.9611C129.094 16.1291 128.924 15.4105 128.586 14.8053C128.247 14.1851 127.785 13.7009 127.2 13.353C126.63 12.9899 125.991 12.8084 125.283 12.8084C124.575 12.8084 123.928 12.9899 123.343 13.353C122.758 13.7009 122.296 14.1851 121.958 14.8053C121.619 15.4105 121.45 16.1291 121.45 16.9611C121.45 17.7629 121.619 18.474 121.958 19.0942C122.296 19.7145 122.758 20.1986 123.343 20.5466C123.928 20.8945 124.575 21.0685 125.283 21.0685C125.991 21.0685 126.63 20.8945 127.2 20.5466C127.785 20.1986 128.247 19.7145 128.586 19.0942C128.924 18.474 129.094 17.7629 129.094 16.9611Z" fill="#5C62F9"/>
    <path d="M143.97 6.13672C144.309 6.13672 144.586 6.24262 144.802 6.45442C145.017 6.66621 145.125 6.94609 145.125 7.29404V21.772C145.125 22.1048 145.017 22.3847 144.802 22.6116C144.586 22.8234 144.309 22.9293 143.97 22.9293C143.647 22.9293 143.37 22.8234 143.139 22.6116C142.923 22.3847 142.816 22.1048 142.816 21.772V20.1381L143.301 20.1608C143.301 20.4331 143.185 20.7432 142.954 21.0912C142.739 21.424 142.438 21.7493 142.054 22.067C141.669 22.3847 141.214 22.6494 140.691 22.8612C140.168 23.0579 139.606 23.1562 139.005 23.1562C137.943 23.1562 136.988 22.8915 136.142 22.362C135.295 21.8174 134.625 21.0836 134.132 20.1608C133.64 19.2228 133.393 18.1487 133.393 16.9384C133.393 15.7282 133.64 14.6616 134.132 13.7388C134.625 12.8008 135.287 12.0671 136.118 11.5376C136.965 10.9929 137.904 10.7206 138.936 10.7206C139.583 10.7206 140.183 10.8265 140.737 11.0383C141.307 11.2501 141.799 11.5224 142.215 11.8553C142.631 12.1881 142.954 12.5436 143.185 12.9218C143.416 13.2849 143.532 13.6329 143.532 13.9657L142.816 14.0338V7.29404C142.816 6.96122 142.923 6.68891 143.139 6.47711C143.37 6.25018 143.647 6.13672 143.97 6.13672ZM139.259 21.0685C139.998 21.0685 140.637 20.887 141.176 20.5239C141.73 20.1608 142.161 19.6691 142.469 19.0488C142.777 18.4286 142.931 17.7251 142.931 16.9384C142.931 16.1518 142.777 15.4483 142.469 14.828C142.161 14.2077 141.73 13.7161 141.176 13.353C140.622 12.9899 139.983 12.8084 139.259 12.8084C138.551 12.8084 137.92 12.9899 137.366 13.353C136.827 13.7161 136.396 14.2077 136.072 14.828C135.764 15.4483 135.61 16.1518 135.61 16.9384C135.61 17.7251 135.764 18.4286 136.072 19.0488C136.396 19.6691 136.827 20.1608 137.366 20.5239C137.92 20.887 138.551 21.0685 139.259 21.0685Z" fill="#5C62F9"/>
    <path d="M154.018 23.1562C152.74 23.1562 151.632 22.899 150.693 22.3847C149.754 21.8552 149.022 21.1366 148.499 20.2289C147.991 19.306 147.737 18.2546 147.737 17.0746C147.737 15.7433 148.006 14.6086 148.545 13.6707C149.099 12.7176 149.815 11.9914 150.693 11.4922C151.57 10.9778 152.502 10.7206 153.487 10.7206C154.241 10.7206 154.957 10.8719 155.635 11.1745C156.312 11.4619 156.913 11.8704 157.436 12.3999C157.975 12.9143 158.398 13.527 158.706 14.238C159.014 14.9339 159.176 15.6979 159.191 16.53C159.176 16.8325 159.053 17.0822 158.822 17.2788C158.591 17.4755 158.321 17.5738 158.013 17.5738H149.03L148.476 15.6449H157.159L156.72 16.0534V15.4861C156.689 14.9566 156.512 14.4952 156.189 14.1018C155.866 13.6934 155.465 13.3832 154.988 13.1714C154.511 12.9445 154.01 12.8311 153.487 12.8311C153.025 12.8311 152.579 12.9067 152.148 13.058C151.732 13.1941 151.355 13.4211 151.016 13.7388C150.693 14.0565 150.431 14.4801 150.231 15.0096C150.046 15.5239 149.954 16.1669 149.954 16.9384C149.954 17.7705 150.131 18.4967 150.485 19.1169C150.839 19.7372 151.316 20.2213 151.917 20.5693C152.517 20.9021 153.179 21.0685 153.903 21.0685C154.472 21.0685 154.942 21.0155 155.311 20.9096C155.681 20.7886 155.989 20.6449 156.235 20.4785C156.482 20.3121 156.697 20.1532 156.882 20.0019C157.113 19.8658 157.344 19.7977 157.575 19.7977C157.852 19.7977 158.083 19.896 158.267 20.0927C158.452 20.2743 158.545 20.4936 158.545 20.7508C158.545 21.0836 158.375 21.3862 158.036 21.6585C157.621 22.0518 157.043 22.3998 156.304 22.7024C155.581 23.0049 154.819 23.1562 154.018 23.1562Z" fill="#5C62F9"/>
    <path d="M162.956 22.9293C162.617 22.9293 162.34 22.8234 162.125 22.6116C161.909 22.3847 161.801 22.1048 161.801 21.772V12.1503C161.801 11.8175 161.909 11.5451 162.125 11.3333C162.34 11.1064 162.617 10.993 162.956 10.993C163.279 10.993 163.549 11.1064 163.764 11.3333C163.995 11.5451 164.111 11.8175 164.111 12.1503V14.6919L163.88 13.7161C164.003 13.2925 164.188 12.8991 164.434 12.5361C164.696 12.173 165.004 11.8553 165.358 11.583C165.712 11.3106 166.105 11.0988 166.536 10.9476C166.982 10.7963 167.444 10.7206 167.921 10.7206C168.322 10.7206 168.668 10.8265 168.96 11.0383C169.253 11.2501 169.399 11.5149 169.399 11.8326C169.399 12.241 169.291 12.5436 169.076 12.7403C168.86 12.9218 168.622 13.0126 168.36 13.0126C168.129 13.0126 167.906 12.9672 167.69 12.8764C167.475 12.7705 167.221 12.7176 166.928 12.7176C166.605 12.7176 166.274 12.8008 165.935 12.9672C165.597 13.1336 165.289 13.3832 165.011 13.7161C164.734 14.0338 164.511 14.412 164.342 14.8507C164.188 15.2894 164.111 15.7811 164.111 16.3257V21.772C164.111 22.1048 163.995 22.3847 163.764 22.6116C163.549 22.8234 163.279 22.9293 162.956 22.9293Z" fill="#5C62F9"/>
    <path d="M170.738 21.0685C170.599 20.8567 170.538 20.6146 170.553 20.3423C170.569 20.0549 170.73 19.8128 171.038 19.6162C171.254 19.48 171.477 19.4271 171.708 19.4573C171.954 19.4724 172.185 19.5859 172.401 19.7977C172.832 20.2667 173.309 20.6373 173.833 20.9096C174.371 21.182 175.018 21.3181 175.772 21.3181C176.08 21.303 176.396 21.2576 176.719 21.182C177.043 21.0912 177.32 20.9399 177.551 20.7281C177.782 20.5012 177.897 20.1759 177.897 19.7523C177.897 19.3741 177.774 19.0715 177.527 18.8446C177.281 18.6177 176.958 18.4361 176.558 18.3C176.157 18.1487 175.726 18.0125 175.264 17.8915C174.772 17.7554 174.271 17.6041 173.763 17.4377C173.271 17.2713 172.824 17.0595 172.424 16.8023C172.023 16.53 171.692 16.182 171.431 15.7584C171.184 15.3348 171.061 14.8129 171.061 14.1926C171.061 13.4816 171.261 12.8689 171.662 12.3545C172.077 11.8401 172.609 11.4392 173.255 11.1518C173.917 10.8644 174.633 10.7206 175.403 10.7206C175.849 10.7206 176.319 10.7812 176.812 10.9022C177.304 11.0081 177.782 11.1821 178.243 11.4241C178.705 11.6662 179.106 11.9839 179.444 12.3772C179.598 12.5739 179.683 12.8084 179.698 13.0807C179.729 13.353 179.606 13.595 179.329 13.8068C179.144 13.9581 178.921 14.0262 178.659 14.0111C178.397 13.9959 178.182 13.9127 178.012 13.7615C177.72 13.3984 177.343 13.1185 176.881 12.9218C176.419 12.71 175.896 12.6041 175.31 12.6041C175.018 12.6041 174.71 12.6495 174.387 12.7403C174.079 12.8159 173.817 12.9596 173.602 13.1714C173.386 13.3832 173.278 13.6934 173.278 14.1018C173.278 14.4801 173.401 14.7826 173.648 15.0096C173.909 15.2365 174.248 15.4256 174.664 15.5769C175.08 15.7282 175.534 15.8643 176.026 15.9853C176.504 16.1064 176.973 16.2501 177.435 16.4165C177.912 16.5829 178.336 16.8023 178.705 17.0746C179.09 17.3318 179.398 17.6722 179.629 18.0958C179.875 18.5042 179.998 19.0262 179.998 19.6616C179.998 20.4028 179.775 21.0382 179.329 21.5677C178.898 22.0821 178.343 22.4754 177.666 22.7478C177.004 23.0201 176.304 23.1562 175.565 23.1562C174.687 23.1562 173.809 23.0049 172.932 22.7024C172.07 22.3847 171.338 21.84 170.738 21.0685Z" fill="#5C62F9"/>
    <path d="M44.3219 6.15625C44.6144 6.15625 44.9146 6.19407 45.2226 6.26971C45.5305 6.34536 45.7845 6.47395 45.9847 6.65549C46.2002 6.8219 46.308 7.05639 46.308 7.35896C46.308 7.66153 46.2156 7.91115 46.0308 8.10782C45.8461 8.28936 45.6306 8.38013 45.3842 8.38013C45.2303 8.38013 45.0224 8.34987 44.7607 8.28936C44.499 8.21372 44.2372 8.1759 43.9755 8.1759C43.6214 8.1759 43.3366 8.2591 43.121 8.42552C42.9055 8.5768 42.7515 8.77347 42.6592 9.01553C42.5668 9.24245 42.5206 9.46938 42.5206 9.69631V21.7688C42.5206 22.1016 42.4051 22.3815 42.1742 22.6084C41.9587 22.8202 41.6892 22.9261 41.3659 22.9261C41.0272 22.9261 40.7501 22.8202 40.5346 22.6084C40.319 22.3815 40.2113 22.1016 40.2113 21.7688V9.719C40.2113 8.67514 40.5577 7.82038 41.2505 7.15473C41.9587 6.48908 42.9825 6.15625 44.3219 6.15625ZM44.7838 11.194C45.0917 11.194 45.3457 11.2924 45.5459 11.489C45.746 11.6857 45.8461 11.9353 45.8461 12.2379C45.8461 12.5405 45.746 12.7901 45.5459 12.9867C45.3457 13.1834 45.0917 13.2817 44.7838 13.2817H38.8025C38.51 13.2817 38.256 13.1834 38.0405 12.9867C37.8403 12.7901 37.7402 12.5405 37.7402 12.2379C37.7402 11.9353 37.8403 11.6857 38.0405 11.489C38.256 11.2924 38.51 11.194 38.8025 11.194H44.7838Z" fill="#01082D"/>
    <path d="M58.1119 10.8082C58.4506 10.8082 58.7277 10.9217 58.9432 11.1486C59.1588 11.3604 59.2665 11.6327 59.2665 11.9656V21.7688C59.2665 22.1016 59.1588 22.3815 58.9432 22.6084C58.7277 22.8202 58.4506 22.9261 58.1119 22.9261C57.7886 22.9261 57.5114 22.8202 57.2805 22.6084C57.065 22.3815 56.9572 22.1016 56.9572 21.7688V20.1349L57.4422 20.203C57.4422 20.4753 57.3267 20.7779 57.0957 21.1107C56.8802 21.4435 56.58 21.7688 56.1951 22.0865C55.8102 22.3891 55.356 22.6463 54.8326 22.8581C54.3091 23.0547 53.7472 23.1531 53.1467 23.1531C52.0844 23.1531 51.1299 22.8883 50.2831 22.3588C49.4364 21.8142 48.7667 21.0729 48.274 20.1349C47.7813 19.197 47.535 18.1304 47.535 16.9353C47.535 15.7099 47.7813 14.6357 48.274 13.7129C48.7667 12.7749 49.4287 12.0412 50.26 11.5117C51.1068 10.9822 52.0459 10.7175 53.0775 10.7175C53.7395 10.7175 54.3476 10.8234 54.9019 11.0352C55.4715 11.247 55.9642 11.5193 56.3798 11.8521C56.7955 12.1849 57.1111 12.5405 57.3267 12.9187C57.5576 13.2817 57.6731 13.6297 57.6731 13.9625L56.9572 14.0306V11.9656C56.9572 11.6479 57.065 11.3756 57.2805 11.1486C57.5114 10.9217 57.7886 10.8082 58.1119 10.8082ZM53.4008 21.0653C54.1244 21.0653 54.7633 20.8838 55.3175 20.5207C55.8718 20.1576 56.3029 19.666 56.6108 19.0457C56.9187 18.4103 57.0727 17.7068 57.0727 16.9353C57.0727 16.1486 56.9187 15.4451 56.6108 14.8249C56.3029 14.2046 55.8718 13.7129 55.3175 13.3498C54.7633 12.9867 54.1244 12.8052 53.4008 12.8052C52.6926 12.8052 52.0613 12.9867 51.5071 13.3498C50.9682 13.7129 50.5372 14.2046 50.2139 14.8249C49.9059 15.4451 49.752 16.1486 49.752 16.9353C49.752 17.7068 49.9059 18.4103 50.2139 19.0457C50.5372 19.666 50.9682 20.1576 51.5071 20.5207C52.0613 20.8838 52.6926 21.0653 53.4008 21.0653Z" fill="#01082D"/>
    <path d="M62.3402 11.1259H67.7672C68.0751 11.1259 68.3291 11.2318 68.5292 11.4436C68.7448 11.6403 68.8526 11.8899 68.8526 12.1925C68.8526 12.4799 68.7448 12.722 68.5292 12.9187C68.3291 13.1153 68.0751 13.2137 67.7672 13.2137H62.3402C62.0322 13.2137 61.7705 13.1153 61.555 12.9187C61.3548 12.7069 61.2548 12.4572 61.2548 12.1698C61.2548 11.8672 61.3548 11.6176 61.555 11.4209C61.7705 11.2243 62.0322 11.1259 62.3402 11.1259ZM64.765 8.1759C65.1037 8.1759 65.3808 8.28936 65.5964 8.51629C65.8119 8.72809 65.9197 9.0004 65.9197 9.33322V19.8626C65.9197 20.1349 65.9659 20.3543 66.0582 20.5207C66.1506 20.6871 66.2738 20.8006 66.4277 20.8611C66.5971 20.9216 66.7664 20.9519 66.9358 20.9519C67.1051 20.9519 67.2514 20.9216 67.3746 20.8611C67.5131 20.8006 67.6748 20.7703 67.8595 20.7703C68.0443 20.7703 68.2136 20.8535 68.3676 21.02C68.5215 21.1864 68.5985 21.4133 68.5985 21.7007C68.5985 22.0638 68.3984 22.3588 67.9981 22.5857C67.5978 22.8127 67.1667 22.9261 66.7049 22.9261C66.4431 22.9261 66.1352 22.9034 65.7811 22.8581C65.427 22.8127 65.0806 22.6992 64.7419 22.5177C64.4186 22.3361 64.1492 22.0487 63.9336 21.6553C63.7181 21.2469 63.6103 20.6796 63.6103 19.9534V9.33322C63.6103 9.0004 63.7181 8.72809 63.9336 8.51629C64.1646 8.28936 64.4417 8.1759 64.765 8.1759Z" fill="#01082D"/>
    <path d="M76.678 10.7175C77.5094 10.7175 78.2484 10.8082 78.895 10.9898C79.5417 11.1562 80.042 11.3983 80.3961 11.716C80.7656 12.0185 80.9504 12.374 80.9504 12.7825C80.9504 13.0397 80.8734 13.2817 80.7194 13.5087C80.5655 13.7205 80.3345 13.8264 80.0266 13.8264C79.8111 13.8264 79.6263 13.7886 79.4724 13.7129C79.3338 13.6373 79.2029 13.5465 79.0798 13.4406C78.9566 13.3347 78.8027 13.2288 78.6179 13.1229C78.4486 13.0321 78.1945 12.9565 77.8558 12.896C77.5325 12.8355 77.24 12.8052 76.9783 12.8052C76.1623 12.8052 75.4541 12.9867 74.8536 13.3498C74.2686 13.7129 73.8067 14.2046 73.468 14.8249C73.1447 15.4451 72.9831 16.1486 72.9831 16.9353C72.9831 17.7219 73.1447 18.4254 73.468 19.0457C73.8067 19.666 74.2609 20.1576 74.8306 20.5207C75.4156 20.8838 76.093 21.0653 76.8628 21.0653C77.3247 21.0653 77.7019 21.0351 77.9944 20.9746C78.2869 20.8989 78.5409 20.8082 78.7565 20.7023C78.9874 20.5661 79.1799 20.4299 79.3338 20.2938C79.5032 20.1425 79.7341 20.0669 80.0266 20.0669C80.3653 20.0669 80.6194 20.1728 80.7887 20.3846C80.9735 20.5812 81.0658 20.8308 81.0658 21.1334C81.0658 21.4662 80.858 21.7915 80.4423 22.1092C80.042 22.4118 79.5032 22.6614 78.8257 22.8581C78.1483 23.0547 77.4016 23.1531 76.5857 23.1531C75.3848 23.1531 74.3379 22.8808 73.4449 22.3361C72.5674 21.7915 71.8823 21.0502 71.3896 20.1122C70.9123 19.1743 70.6737 18.1153 70.6737 16.9353C70.6737 15.7401 70.9277 14.6811 71.4358 13.7583C71.9439 12.8203 72.6521 12.079 73.5604 11.5344C74.4688 10.9898 75.508 10.7175 76.678 10.7175Z" fill="#01082D"/>
    <path d="M93.2259 10.8082C93.5646 10.8082 93.8417 10.9217 94.0572 11.1486C94.2728 11.3604 94.3806 11.6327 94.3806 11.9656V21.7688C94.3806 22.1016 94.2728 22.3815 94.0572 22.6084C93.8417 22.8202 93.5646 22.9261 93.2259 22.9261C92.9026 22.9261 92.6254 22.8202 92.3945 22.6084C92.179 22.3815 92.0712 22.1016 92.0712 21.7688V20.1349L92.5562 20.203C92.5562 20.4753 92.4407 20.7779 92.2098 21.1107C91.9942 21.4435 91.694 21.7688 91.3091 22.0865C90.9242 22.3891 90.47 22.6463 89.9466 22.8581C89.4231 23.0547 88.8612 23.1531 88.2607 23.1531C87.1984 23.1531 86.2439 22.8883 85.3971 22.3588C84.5504 21.8142 83.8807 21.0729 83.388 20.1349C82.8953 19.197 82.649 18.1304 82.649 16.9353C82.649 15.7099 82.8953 14.6357 83.388 13.7129C83.8807 12.7749 84.5427 12.0412 85.3741 11.5117C86.2208 10.9822 87.16 10.7175 88.1915 10.7175C88.8535 10.7175 89.4616 10.8234 90.0159 11.0352C90.5855 11.247 91.0782 11.5193 91.4939 11.8521C91.9095 12.1849 92.2252 12.5405 92.4407 12.9187C92.6716 13.2817 92.7871 13.6297 92.7871 13.9625L92.0712 14.0306V11.9656C92.0712 11.6479 92.179 11.3756 92.3945 11.1486C92.6254 10.9217 92.9026 10.8082 93.2259 10.8082ZM88.5148 21.0653C89.2384 21.0653 89.8773 20.8838 90.4316 20.5207C90.9858 20.1576 91.4169 19.666 91.7248 19.0457C92.0327 18.4103 92.1867 17.7068 92.1867 16.9353C92.1867 16.1486 92.0327 15.4451 91.7248 14.8249C91.4169 14.2046 90.9858 13.7129 90.4316 13.3498C89.8773 12.9867 89.2384 12.8052 88.5148 12.8052C87.8066 12.8052 87.1754 12.9867 86.6211 13.3498C86.0823 13.7129 85.6512 14.2046 85.3279 14.8249C85.0199 15.4451 84.866 16.1486 84.866 16.9353C84.866 17.7068 85.0199 18.4103 85.3279 19.0457C85.6512 19.666 86.0823 20.1576 86.6211 20.5207C87.1754 20.8838 87.8066 21.0653 88.5148 21.0653Z" fill="#01082D"/>
    <path d="M97.4542 11.1259H102.881C103.189 11.1259 103.443 11.2318 103.643 11.4436C103.859 11.6403 103.967 11.8899 103.967 12.1925C103.967 12.4799 103.859 12.722 103.643 12.9187C103.443 13.1153 103.189 13.2137 102.881 13.2137H97.4542C97.1463 13.2137 96.8845 13.1153 96.669 12.9187C96.4688 12.7069 96.3688 12.4572 96.3688 12.1698C96.3688 11.8672 96.4688 11.6176 96.669 11.4209C96.8845 11.2243 97.1463 11.1259 97.4542 11.1259ZM99.879 8.1759C100.218 8.1759 100.495 8.28936 100.71 8.51629C100.926 8.72809 101.034 9.0004 101.034 9.33322V19.8626C101.034 20.1349 101.08 20.3543 101.172 20.5207C101.265 20.6871 101.388 20.8006 101.542 20.8611C101.711 20.9216 101.88 20.9519 102.05 20.9519C102.219 20.9519 102.365 20.9216 102.489 20.8611C102.627 20.8006 102.789 20.7703 102.974 20.7703C103.158 20.7703 103.328 20.8535 103.482 21.02C103.636 21.1864 103.713 21.4133 103.713 21.7007C103.713 22.0638 103.512 22.3588 103.112 22.5857C102.712 22.8127 102.281 22.9261 101.819 22.9261C101.557 22.9261 101.249 22.9034 100.895 22.8581C100.541 22.8127 100.195 22.6992 99.8559 22.5177C99.5326 22.3361 99.2632 22.0487 99.0476 21.6553C98.8321 21.2469 98.7243 20.6796 98.7243 19.9534V9.33322C98.7243 9.0004 98.8321 8.72809 99.0476 8.51629C99.2786 8.28936 99.5557 8.1759 99.879 8.1759Z" fill="#01082D"/>
</svg>
