<svg width="41" height="35" viewBox="0 0 41 35" fill="none" xmlns="http://www.w3.org/2000/svg">
<path d="M20.5391 14.9715C26.7112 14.9715 35.5396 24.5946 35.5396 30.697C35.5396 33.4353 33.4302 35 29.9144 35C26.0862 35 23.5861 33.0441 20.5391 33.0441C17.4139 33.0441 14.9138 35 11.0856 35C7.56981 35 5.53848 33.4353 5.53848 30.697C5.53848 24.5946 14.2888 14.9715 20.5391 14.9715ZM8.97611 14.0326C9.83552 16.7709 8.58547 19.3527 6.31976 19.9004C4.05404 20.448 1.55394 18.7268 0.772663 15.9886C-0.0867453 13.2503 1.1633 10.6685 3.42902 10.1208C5.69473 9.57317 8.19483 11.2944 8.97611 14.0326ZM15.617 12.3897C13.195 13.0156 10.4605 10.825 9.52301 7.38255C8.6636 4.01839 9.83552 0.732459 12.2575 0.106568C14.6795 -0.519324 17.4139 1.6713 18.3515 5.1137C19.2109 8.47786 18.039 11.7638 15.617 12.3897ZM37.571 10.1208C39.8367 10.6685 41.0867 13.2503 40.2273 15.9886C39.4461 18.7268 36.946 20.448 34.6802 19.9004C32.4145 19.3527 31.1645 16.7709 32.0239 14.0326C32.8052 11.2944 35.3053 9.57317 37.571 10.1208ZM25.383 12.3897C22.961 11.7638 21.7891 8.47786 22.6485 5.1137C23.5861 1.6713 26.3205 -0.519324 28.7425 0.106568C31.1645 0.732459 32.3364 4.01839 31.477 7.38255C30.5395 10.825 27.805 13.0156 25.383 12.3897Z" fill="#5C62F9"/>
</svg>
