<svg width="211" height="115" viewBox="0 0 211 115" fill="none" xmlns="http://www.w3.org/2000/svg">
<path d="M156.78 0.797454C159.349 1.85342 161.853 3.06024 164.316 4.35989C166.779 5.65955 169.198 7.06364 171.572 8.55186C176.346 11.5194 180.956 14.84 185.375 18.4936C189.832 22.1423 194.006 26.2487 197.849 30.7649C199.784 33.0547 201.582 35.4993 203.23 38.0813C204.91 40.6929 206.36 43.5002 207.556 46.4594C208.786 49.4795 209.624 52.701 210.041 56.0154C210.44 59.3801 210.32 62.8023 209.686 66.1167C209.051 69.3955 207.984 72.5367 206.525 75.4261C205.094 78.2732 203.387 80.9145 201.439 83.2965C199.515 85.6493 197.425 87.8057 195.192 89.7426C192.994 91.6672 190.693 93.423 188.303 94.9992C183.547 98.1127 178.57 100.733 173.43 102.832C168.326 104.924 163.124 106.668 157.85 108.054C155.226 108.75 152.587 109.38 149.933 109.942C147.283 110.494 144.628 110.998 141.966 111.431C131.312 113.171 120.59 114.012 109.872 114.285C104.518 114.416 99.1423 114.392 93.7762 114.172C88.41 113.952 83.0389 113.528 77.6875 112.861C75.0106 112.53 72.3386 112.147 69.6715 111.686C67.0044 111.225 64.3447 110.717 61.6948 110.116C56.3815 108.942 51.1251 107.434 45.9481 105.6C40.7332 103.766 35.6355 101.498 30.6935 98.8112C28.2184 97.4506 25.7727 95.9653 23.4156 94.332C21.0335 92.6924 18.7333 90.8927 16.5264 88.9419C15.4242 87.9526 14.3367 86.9373 13.291 85.8494C12.2453 84.7615 11.2218 83.6446 10.2426 82.461C8.25376 80.0873 6.47474 77.4814 4.93297 74.6834C3.35822 71.8303 2.11683 68.74 1.24234 65.4959C0.33737 62.1828 -0.0787369 58.7111 0.0121328 55.2321C0.0638387 53.4746 0.253289 51.7266 0.578041 50.0103C0.906559 48.3174 1.35256 46.6592 1.91157 45.0524C2.45978 43.4657 3.11129 41.9313 3.86023 40.463C4.59081 39.008 5.3986 37.6089 6.27881 36.274C7.14107 34.9493 8.0626 33.6798 9.03942 32.4707C9.51674 31.8586 10.0236 31.2871 10.5157 30.7011C10.7617 30.411 11.025 30.1354 11.2809 29.854C11.5367 29.5726 11.7926 29.2912 12.0559 29.0214L12.8407 28.2062L13.6428 27.4201C14.1743 26.8863 14.7279 26.396 15.2716 25.8854C16.3764 24.8991 17.486 23.9359 18.6375 23.0337C23.209 19.3842 28.083 16.4078 33.0752 13.8491C38.0638 11.3198 43.1855 9.1724 48.4085 7.42046C58.8104 3.95699 69.476 1.70853 80.2513 0.707523C85.6223 0.176637 91.0156 -0.0380509 96.399 0.00546435C101.782 0.0489796 107.139 0.295572 112.502 0.791646C115.184 1.01502 117.861 1.37186 120.538 1.72288L124.541 2.3669C125.208 2.46553 125.872 2.60478 126.537 2.73533L128.532 3.13277C129.196 3.26912 129.861 3.38515 130.522 3.5418L132.506 4.01757C133.827 4.33959 135.153 4.62388 136.459 5.02422C137.766 5.42456 139.085 5.76399 140.396 6.16433L144.291 7.47267C149.464 9.32029 154.53 11.5617 159.457 14.1827C164.354 16.8845 169.089 19.9794 173.627 23.4457C173.957 23.6934 174.191 24.0858 174.276 24.5366C174.361 24.9873 174.291 25.4595 174.08 25.8492C173.87 26.2389 173.538 26.5142 173.155 26.6146C172.773 26.7149 172.373 26.6321 172.042 26.3844L172.017 26.3641C167.566 23.083 162.93 20.1655 158.141 17.632C153.318 15.1841 148.365 13.1074 143.314 11.4152L139.51 10.2141C138.233 9.84571 136.947 9.52371 135.667 9.17559C134.388 8.82747 133.094 8.54895 131.804 8.25305L129.868 7.8179C129.221 7.67575 128.569 7.57422 127.919 7.44948L125.968 7.09264C125.319 6.9737 124.672 6.84607 124.017 6.76194L120.098 6.18174C117.475 5.89164 114.855 5.56961 112.224 5.39265C106.961 4.99425 101.684 4.81825 96.394 4.86466C91.1288 4.90528 85.8635 5.19248 80.6252 5.76978C70.1538 6.87276 59.7997 9.1873 49.7126 12.68C44.6998 14.4315 39.7884 16.5634 35.0091 19.0622C30.2658 21.5169 25.7202 24.4715 21.4276 27.89C20.3622 28.74 19.3363 29.6306 18.3226 30.559C17.8305 31.0318 17.3187 31.4873 16.8463 31.9776L16.1082 32.7028L15.3996 33.4513C14.4597 34.4521 13.5494 35.482 12.6931 36.567C11.8334 37.6328 11.0227 38.7523 10.2647 39.9205C9.50971 41.0662 8.81772 42.2678 8.19302 43.5178C7.57152 44.7422 7.02792 46.0192 6.56669 47.3384C6.11115 48.6371 5.74501 49.9768 5.47181 51.3447C5.20948 52.6981 5.05381 54.0771 5.00679 55.4642C4.96184 56.8591 5.02111 58.256 5.18393 59.6387C5.35026 61.0388 5.61358 62.4204 5.97125 63.7698C6.70766 66.5182 7.75454 69.1371 9.08369 71.5561C11.7483 76.4878 15.3971 80.7494 19.4494 84.4105C21.4992 86.2413 23.635 87.9343 25.8465 89.4815C28.0674 91.0287 30.3548 92.456 32.7086 93.7634C37.4325 96.3744 42.3083 98.5848 47.2989 100.378C52.3124 102.194 57.4045 103.694 62.5535 104.871C65.1295 105.475 67.7203 105.991 70.3259 106.458C72.9315 106.925 75.542 107.329 78.1599 107.662C83.3981 108.355 88.6659 108.796 93.941 109.066C99.2161 109.336 104.501 109.385 109.796 109.295C120.376 109.101 130.956 108.347 141.417 106.716C144.033 106.31 146.638 105.846 149.236 105.315C151.835 104.784 154.418 104.184 156.989 103.522C162.122 102.212 167.187 100.553 172.158 98.553C177.101 96.5806 181.89 94.1054 186.47 91.1554C187.609 90.4185 188.716 89.6265 189.814 88.8201C190.911 88.0136 191.974 87.152 193.012 86.2469C195.083 84.4712 197.023 82.4925 198.811 80.3317C200.577 78.2014 202.127 75.8368 203.43 73.2851C204.714 70.7794 205.659 68.0525 206.23 65.2029C206.787 62.3785 206.907 59.4587 206.584 56.584C206.235 53.669 205.515 50.8327 204.448 48.171C203.367 45.4475 202.052 42.861 200.526 40.4514C198.985 37.9966 197.303 35.6703 195.49 33.489C191.808 29.1082 187.805 25.1193 183.527 21.5687C179.242 17.9681 174.768 14.6902 170.133 11.7546C167.815 10.2809 165.461 8.89708 163.071 7.60322C160.682 6.31517 158.259 5.11996 155.803 4.0901C155.434 3.93622 155.132 3.61566 154.963 3.19892C154.794 2.78218 154.772 2.30341 154.903 1.86793C155.033 1.43245 155.305 1.07593 155.659 0.876814C156.012 0.677693 156.418 0.652268 156.787 0.806147L156.78 0.797454Z" fill="#FFEDA6"/>
</svg>
