<svg xmlns="http://www.w3.org/2000/svg" width="20" height="20" fill="currentColor" viewBox="0 0 20 20"><path fill-rule="evenodd" d="M12.8 10a.48.48 0 0 1-.15.35l-2.8 2.8c-.167.167-.35.208-.55.125-.2-.083-.3-.242-.3-.475V11H7V9h2V7.2c0-.233.1-.392.3-.475.2-.083.383-.042.55.125l2.8 2.8c.1.1.15.217.15.35Zm6.412 3.9A9.733 9.733 0 0 0 20 10a9.72 9.72 0 0 0-.787-3.9 10.105 10.105 0 0 0-2.138-3.175c-.9-.9-1.958-1.612-3.175-2.137A9.732 9.732 0 0 0 10 0a9.72 9.72 0 0 0-3.9.787 10.106 10.106 0 0 0-3.175 2.138c-.9.9-1.612 1.958-2.137 3.175A9.732 9.732 0 0 0 0 10c0 1.383.263 2.683.788 3.9a10.091 10.091 0 0 0 2.137 3.175c.9.9 1.958 1.612 3.175 2.137A9.733 9.733 0 0 0 10 20a9.755 9.755 0 0 0 3.9-.788 10.092 10.092 0 0 0 3.175-2.137c.9-.9 1.612-1.958 2.137-3.175Zm-3.549-9.563C17.221 5.896 18 7.783 18 10s-.778 4.105-2.337 5.663C14.104 17.221 12.217 18 10 18s-4.105-.778-5.663-2.337C2.779 14.104 2 12.217 2 10s.778-4.105 2.337-5.663C5.896 2.779 7.783 2 10 2s4.105.778 5.663 2.337Z" clip-rule="evenodd"></path></svg>